#!OML:ASF Y:\EmotionMaleHayes\Project 1\Capture day 1\Session 1\Male1.ASF
:FULLY-SPECIFIED
:DEGREES
50
root -21.4842 14.6829 6.83733 -182.483 -67.207 185.815
lowerback 32.0861 7.93254 2.99422
upperback 8.90386 10.3494 5.87832
thorax -7.81888 4.32199 1.10444
lowerneck -6.48912 -18.1248 -7.74621
upperneck 2.60878 -25.2685 19.9181
head 5.43783 -11.9579 4.91937
rclavicle -6.67916e-014 -1.43125e-014
rhumerus -45.8618 -25.0414 -51.1797
rradius 36.6812
rwrist -27.2425
rhand -30.3379 -49.691
rfingers 7.12502
rthumb -3.64376 -79.6396
lclavicle -6.67916e-014 -1.43125e-014
lhumerus -69.6528 22.7612 37.5232
lradius 19.6289
lwrist -5.07053
lhand -16.581 -11.2965
lfingers 7.12502
lthumb 9.63967 18.4629
rfemur -3.24348 -9.25466 -13.2376
rtibia 73.0214
rfoot -360.421 -3.9707
rtoes 32.4656
lfemur -42.0096 30.3838 -12.0367
ltibia 69.8623
lfoot -25.7747 7.59782
ltoes -20.0289
51
root -21.294 14.6416 6.83214 -182.923 -64.9845 186.582
lowerback 31.9069 8.25651 3.30255
upperback 8.91197 10.8313 5.96444
thorax -7.69454 4.54004 0.871974
lowerneck -6.63689 -18.0637 -7.453
upperneck 2.67287 -25.2004 19.7675
head 5.41361 -11.9145 4.84147
rclavicle 3.65764e-014 3.81667e-014
rhumerus -48.3581 -27.2222 -47.5274
rradius 37.1384
rwrist -29.1696
rhand -31.7374 -52.106
rfingers 7.12502
rthumb -4.99513 -82.0271
lclavicle 3.65764e-014 3.81667e-014
lhumerus -71.1212 21.6944 36.0431
lradius 20.5533
lwrist -1.7848
lhand -17.8115 -11.8613
lfingers 7.12502
lthumb 8.45221 17.9496
rfemur -3.37341 -9.94653 -12.8211
rtibia 70.6384
rfoot -360.924 -2.09702
rtoes 23.2262
lfemur -42.706 32.0462 -10.9723
ltibia 70.4087
lfoot -25.4671 8.25383
ltoes -19.8627
52
root -21.098 14.5994 6.82391 -183.916 -62.4895 187.938
lowerback 31.8279 8.50642 3.97244
upperback 8.93108 11.3095 5.97773
thorax -7.51089 4.74942 0.364562
lowerneck -6.90254 -17.9869 -7.09771
upperneck 2.81245 -25.1376 19.6586
head 5.43181 -11.8618 4.75347
rclavicle 3.49861e-014 2.06736e-014
rhumerus -50.9655 -29.6437 -43.8089
rradius 38.0806
rwrist -30.6108
rhand -32.7756 -53.6382
rfingers 7.12502
rthumb -5.99753 -83.5333
lclavicle 3.49861e-014 2.06736e-014
lhumerus -72.6128 20.7266 34.2349
lradius 21.4436
lwrist 1.02346
lhand -18.9171 -12.1959
lfingers 7.12502
lthumb 7.38514 17.6552
rfemur -3.76534 -10.8692 -11.7884
rtibia 68.184
rfoot -360.027 -1.40135
rtoes 20.6871
lfemur -43.1776 33.8196 -9.25016
ltibia 70.9691
lfoot -25.0632 9.27208
ltoes -19.694
53
root -20.8982 14.5527 6.81486 -184.258 -60.443 188.696
lowerback 31.6442 8.51284 4.55825
upperback 8.91516 11.4526 5.8923
thorax -7.30619 4.81147 -0.0703055
lowerneck -7.33884 -17.8824 -6.9086
upperneck 3.28659 -25.0916 19.5725
head 5.60833 -11.7843 4.66028
rclavicle 4.92986e-014 6.83819e-014
rhumerus -53.4523 -31.7785 -40.277
rradius 39.3508
rwrist -31.8051
rhand -33.256 -54.0565
rfingers 7.12502
rthumb -6.46137 -83.9379
lclavicle 4.92986e-014 6.83819e-014
lhumerus -74.1596 19.9382 32.1014
lradius 22.1456
lwrist 3.19025
lhand -19.9475 -12.2224
lfingers 7.12502
lthumb 6.39051 17.6612
rfemur -3.88268 -12.3604 -10.9953
rtibia 65.5846
rfoot -358.752 0.226648
rtoes 15.4753
lfemur -43.8622 34.9164 -7.99683
ltibia 71.5251
lfoot -24.4939 10.6383
ltoes -20.8025
54
root -20.6864 14.5136 6.80356 -184.532 -57.401 189.201
lowerback 32.1285 8.91012 4.6179
upperback 8.73108 11.9892 5.8122
thorax -7.70145 5.02681 -0.447409
lowerneck -7.57996 -17.7009 -6.75722
upperneck 3.90566 -24.9486 19.3141
head 5.76508 -11.6689 4.55343
rclavicle -1.25632e-013 4.77083e-014
rhumerus -55.8203 -33.5442 -36.9752
rradius 40.6861
rwrist -31.8185
rhand -32.9009 -53.0547
rfingers 7.12502
rthumb -6.11853 -82.9463
lclavicle -1.25632e-013 4.77083e-014
lhumerus -76.0258 18.9452 29.715
lradius 22.7465
lwrist 4.98585
lhand -20.3173 -11.7532
lfingers 7.12502
lthumb 6.03347 18.1409
rfemur -4.65872 -12.2884 -9.3412
rtibia 62.8873
rfoot -356.825 0.75864
rtoes 16.2908
lfemur -43.7197 36.7878 -6.14927
ltibia 71.9131
lfoot -24.401 11.447
ltoes -20.181
